<svg xmlns="http://www.w3.org/2000/svg" width="800" height="800" viewBox="0 0 24 24" fill="none"><g stroke-width="0"/><g stroke-linecap="round" stroke-linejoin="round"/><path d="M19.67 8.14a2 2 0 0 0-1.42-1.43A48 48 0 0 0 12 6.38a48 48 0 0 0-6.25.33 2 2 0 0 0-1.42 1.43A21.3 21.3 0 0 0 4 12c-.008 1.3.102 2.6.33 3.88a2 2 0 0 0 1.42 1.4c2.074.245 4.162.355 6.25.33a48 48 0 0 0 6.25-.33 2 2 0 0 0 1.42-1.4c.228-1.28.338-2.58.33-3.88a21.3 21.3 0 0 0-.33-3.86m-9.31 6.25V9.63L14.55 12l-4.19 2.38z" fill="#fff"/></svg>