<svg width="235" height="166" viewBox="0 0 235 166" fill="none" xmlns="http://www.w3.org/2000/svg">
<path d="M26.592 69.624L19.584 78.84V99H7.008V31.992H19.584V62.136H20.16L27.936 51L42.048 31.992H56.256L35.232 60.216L57.216 99H43.008L26.592 69.624ZM65.0505 99V89.592H80.1225V41.4H65.0505V31.992H107.675V41.4H92.6025V89.592H107.675V99H65.0505ZM145.653 100.152C136.885 100.152 130.389 97.144 126.165 91.128C122.005 85.112 119.925 76.568 119.925 65.496C119.925 54.488 122.005 45.976 126.165 39.96C130.389 33.88 136.885 30.84 145.653 30.84C148.981 30.84 151.893 31.288 154.389 32.184C156.949 33.08 159.157 34.328 161.013 35.928C162.869 37.464 164.405 39.352 165.621 41.592C166.837 43.768 167.797 46.168 168.501 48.792L156.981 52.056C156.533 50.52 156.021 49.08 155.445 47.736C154.869 46.392 154.133 45.24 153.237 44.28C152.405 43.256 151.349 42.488 150.069 41.976C148.789 41.4 147.253 41.112 145.461 41.112C141.109 41.112 137.973 42.776 136.053 46.104C134.197 49.432 133.269 53.976 133.269 59.736V71.256C133.269 77.016 134.197 81.56 136.053 84.888C137.973 88.216 141.109 89.88 145.461 89.88C147.253 89.88 148.789 89.624 150.069 89.112C151.349 88.536 152.405 87.768 153.237 86.808C154.133 85.784 154.869 84.6 155.445 83.256C156.021 81.912 156.533 80.472 156.981 78.936L168.501 82.2C167.797 84.824 166.837 87.256 165.621 89.496C164.405 91.672 162.869 93.56 161.013 95.16C159.157 96.696 156.949 97.912 154.389 98.808C151.893 99.704 148.981 100.152 145.653 100.152ZM199.28 69.624L192.272 78.84V99H179.696V31.992H192.272V62.136H192.848L200.624 51L214.736 31.992H228.944L207.92 60.216L229.904 99H215.696L199.28 69.624Z" fill="black"/>
<path d="M15.504 149H7.12V104.328H24.08C28.432 104.328 31.76 105.565 34.064 108.04C36.368 110.515 37.52 113.885 37.52 118.152C37.52 121.437 36.752 124.211 35.216 126.472C33.7227 128.691 31.568 130.099 28.752 130.696L38.288 149H29.072L20.56 131.656H15.504V149ZM22.352 125.128C24.6133 125.128 26.2347 124.68 27.216 123.784C28.1973 122.845 28.688 121.373 28.688 119.368V116.936C28.688 114.931 28.1973 113.48 27.216 112.584C26.2347 111.645 24.6133 111.176 22.352 111.176H15.504V125.128H22.352Z" fill="black"/>
<path d="M160.368 149V115.976H167.152V120.52H167.536C168.048 119.069 168.773 117.832 169.712 116.808C170.693 115.741 172.059 115.208 173.808 115.208C175.472 115.208 176.795 115.699 177.776 116.68C178.757 117.619 179.397 118.963 179.696 120.712H180.016C180.571 119.219 181.381 117.939 182.448 116.872C183.557 115.763 185.115 115.208 187.12 115.208C189.552 115.208 191.301 116.083 192.368 117.832C193.435 119.581 193.968 122.163 193.968 125.576V149H187.248V126.536C187.248 124.616 186.971 123.272 186.416 122.504C185.904 121.736 185.115 121.352 184.048 121.352C183.067 121.352 182.235 121.672 181.552 122.312C180.912 122.952 180.592 123.933 180.592 125.256V149H173.808V126.536C173.808 124.616 173.552 123.272 173.04 122.504C172.528 121.736 171.739 121.352 170.672 121.352C169.648 121.352 168.795 121.672 168.112 122.312C167.472 122.952 167.152 123.933 167.152 125.256V149H160.368ZM215.447 149.768C211.82 149.768 208.684 149.213 206.039 148.104C203.394 146.952 201.324 145.416 199.831 143.496L204.631 139.144C205.996 140.637 207.554 141.789 209.303 142.6C211.095 143.411 213.164 143.816 215.511 143.816C217.559 143.816 219.202 143.475 220.439 142.792C221.676 142.109 222.295 141.064 222.295 139.656C222.295 138.461 221.868 137.651 221.015 137.224C220.204 136.797 219.116 136.477 217.751 136.264L212.439 135.432C211.074 135.219 209.73 134.92 208.407 134.536C207.127 134.109 205.975 133.533 204.951 132.808C203.97 132.083 203.18 131.165 202.583 130.056C201.986 128.904 201.687 127.517 201.687 125.896C201.687 122.44 202.967 119.795 205.527 117.96C208.13 116.125 211.692 115.208 216.215 115.208C219.415 115.208 222.124 115.656 224.343 116.552C226.604 117.448 228.46 118.707 229.911 120.328L225.623 125.064C224.684 124.04 223.426 123.144 221.847 122.376C220.311 121.565 218.348 121.16 215.959 121.16C211.778 121.16 209.687 122.461 209.687 125.064C209.687 126.259 210.114 127.091 210.967 127.56C211.82 127.987 212.93 128.307 214.295 128.52L219.543 129.352C220.951 129.565 222.295 129.885 223.575 130.312C224.898 130.696 226.05 131.251 227.031 131.976C228.055 132.701 228.866 133.619 229.463 134.728C230.06 135.837 230.359 137.203 230.359 138.824C230.359 142.237 229.036 144.925 226.391 146.888C223.788 148.808 220.14 149.768 215.447 149.768Z" fill="black"/>
<rect x="48.5" y="119.5" width="102" height="26" rx="13" stroke="black" stroke-width="7"/>
<path d="M100 122L100 145" stroke="black" stroke-width="7" stroke-linecap="round" stroke-linejoin="round"/>
</svg>
